<?xml version="1.0" encoding="UTF-8" standalone="no"?>
<svg
   height="128px"
   viewBox="0 0 128 128"
   width="128px"
   version="1.1"
   id="svg24"
   sodipodi:docname="computer-grey.svg"
   inkscape:version="1.4 (e7c3feb100, 2024-10-09)"
   xmlns:inkscape="http://www.inkscape.org/namespaces/inkscape"
   xmlns:sodipodi="http://sodipodi.sourceforge.net/DTD/sodipodi-0.dtd"
   xmlns="http://www.w3.org/2000/svg"
   xmlns:svg="http://www.w3.org/2000/svg">
  <defs
     id="defs24">
    <filter
       style="color-interpolation-filters:sRGB;"
       inkscape:label="Greyscale"
       id="filter24"
       x="0"
       y="0"
       width="1"
       height="1">
      <feColorMatrix
         values="0.21 0.72 0.072 0 0 0.21 0.72 0.072 0 0 0.21 0.72 0.072 0 0 0 0 0 1 0 "
         id="feColorMatrix24"
         result="fbSourceGraphic" />
      <feColorMatrix
         result="fbSourceGraphicAlpha"
         in="fbSourceGraphic"
         values="0 0 0 -1 0 0 0 0 -1 0 0 0 0 -1 0 0 0 0 1 0"
         id="feColorMatrix25" />
      <feColorMatrix
         id="feColorMatrix26"
         values="0.21 0.72 0.072 0 0 0.21 0.72 0.072 0 0 0.21 0.72 0.072 0 0 0 0 0 1 0 "
         in="fbSourceGraphic"
         result="fbSourceGraphic" />
      <feColorMatrix
         result="fbSourceGraphicAlpha"
         in="fbSourceGraphic"
         values="0 0 0 -1 0 0 0 0 -1 0 0 0 0 -1 0 0 0 0 1 0"
         id="feColorMatrix32" />
      <feColorMatrix
         id="feColorMatrix33"
         values="0.21 0.72 0.072 0 0 0.21 0.72 0.072 0 0 0.21 0.72 0.072 0 0 0 0 0 1 0 "
         in="fbSourceGraphic" />
    </filter>
    <filter
       style="color-interpolation-filters:sRGB;"
       inkscape:label="Greyscale"
       id="filter27"
       x="0"
       y="0"
       width="1"
       height="1">
      <feColorMatrix
         values="0.21 0.72 0.072 0 0 0.21 0.72 0.072 0 0 0.21 0.72 0.072 0 0 0 0 0 1 0 "
         id="feColorMatrix27"
         result="fbSourceGraphic" />
      <feColorMatrix
         result="fbSourceGraphicAlpha"
         in="fbSourceGraphic"
         values="0 0 0 -1 0 0 0 0 -1 0 0 0 0 -1 0 0 0 0 1 0"
         id="feColorMatrix34" />
      <feColorMatrix
         id="feColorMatrix35"
         values="0.21 0.72 0.072 0 0 0.21 0.72 0.072 0 0 0.21 0.72 0.072 0 0 0 0 0 1 0 "
         in="fbSourceGraphic" />
    </filter>
    <filter
       style="color-interpolation-filters:sRGB;"
       inkscape:label="Greyscale"
       id="filter28"
       x="0"
       y="0"
       width="1"
       height="1">
      <feColorMatrix
         values="0.21 0.72 0.072 0 0 0.21 0.72 0.072 0 0 0.21 0.72 0.072 0 0 0 0 0 1 0 "
         id="feColorMatrix28"
         result="fbSourceGraphic" />
      <feColorMatrix
         result="fbSourceGraphicAlpha"
         in="fbSourceGraphic"
         values="0 0 0 -1 0 0 0 0 -1 0 0 0 0 -1 0 0 0 0 1 0"
         id="feColorMatrix36" />
      <feColorMatrix
         id="feColorMatrix37"
         values="0.21 0.72 0.072 0 0 0.21 0.72 0.072 0 0 0.21 0.72 0.072 0 0 0 0 0 1 0 "
         in="fbSourceGraphic" />
    </filter>
    <filter
       style="color-interpolation-filters:sRGB;"
       inkscape:label="Greyscale"
       id="filter29"
       x="0"
       y="0"
       width="1"
       height="1">
      <feColorMatrix
         values="0.21 0.72 0.072 0 0 0.21 0.72 0.072 0 0 0.21 0.72 0.072 0 0 0 0 0 1 0 "
         id="feColorMatrix29"
         result="fbSourceGraphic" />
      <feColorMatrix
         result="fbSourceGraphicAlpha"
         in="fbSourceGraphic"
         values="0 0 0 -1 0 0 0 0 -1 0 0 0 0 -1 0 0 0 0 1 0"
         id="feColorMatrix38" />
      <feColorMatrix
         id="feColorMatrix39"
         values="0.21 0.72 0.072 0 0 0.21 0.72 0.072 0 0 0.21 0.72 0.072 0 0 0 0 0 1 0 "
         in="fbSourceGraphic" />
    </filter>
    <filter
       style="color-interpolation-filters:sRGB;"
       inkscape:label="Greyscale"
       id="filter30"
       x="0"
       y="0"
       width="1"
       height="1">
      <feColorMatrix
         values="0.21 0.72 0.072 0 0 0.21 0.72 0.072 0 0 0.21 0.72 0.072 0 0 0 0 0 1 0 "
         id="feColorMatrix30"
         result="fbSourceGraphic" />
      <feColorMatrix
         result="fbSourceGraphicAlpha"
         in="fbSourceGraphic"
         values="0 0 0 -1 0 0 0 0 -1 0 0 0 0 -1 0 0 0 0 1 0"
         id="feColorMatrix40" />
      <feColorMatrix
         id="feColorMatrix41"
         values="0.21 0.72 0.072 0 0 0.21 0.72 0.072 0 0 0.21 0.72 0.072 0 0 0 0 0 1 0 "
         in="fbSourceGraphic" />
    </filter>
    <filter
       style="color-interpolation-filters:sRGB;"
       inkscape:label="Greyscale"
       id="filter31"
       x="0"
       y="0"
       width="1"
       height="1">
      <feColorMatrix
         values="0.21 0.72 0.072 0 0 0.21 0.72 0.072 0 0 0.21 0.72 0.072 0 0 0 0 0 1 0 "
         id="feColorMatrix31"
         result="fbSourceGraphic" />
      <feColorMatrix
         result="fbSourceGraphicAlpha"
         in="fbSourceGraphic"
         values="0 0 0 -1 0 0 0 0 -1 0 0 0 0 -1 0 0 0 0 1 0"
         id="feColorMatrix42" />
      <feColorMatrix
         id="feColorMatrix43"
         values="0.21 0.72 0.072 0 0 0.21 0.72 0.072 0 0 0.21 0.72 0.072 0 0 0 0 0 1 0 "
         in="fbSourceGraphic" />
    </filter>
  </defs>
  <sodipodi:namedview
     id="namedview24"
     pagecolor="#505050"
     bordercolor="#eeeeee"
     borderopacity="1"
     inkscape:showpageshadow="0"
     inkscape:pageopacity="0"
     inkscape:pagecheckerboard="0"
     inkscape:deskcolor="#505050"
     inkscape:zoom="6.4081552"
     inkscape:cx="60.625872"
     inkscape:cy="66.165688"
     inkscape:window-width="2560"
     inkscape:window-height="1371"
     inkscape:window-x="0"
     inkscape:window-y="0"
     inkscape:window-maximized="1"
     inkscape:current-layer="svg24" />
  <clipPath
     id="a">
    <path
       d="m 41 70 h 46 v 52 h -46 z m 0 0"
       id="path1" />
  </clipPath>
  <clipPath
     id="b">
    <path
       d="m 40.402344 54.339844 h 47.421875 v 68.484375 h -47.421875 z m 35.910156 42.734375 c 0 -6.742188 -5.453125 -12.210938 -12.183594 -12.210938 c -6.726562 0 -12.183594 5.46875 -12.183594 12.210938 c 0 6.742187 5.457032 12.210937 12.183594 12.210937 c 6.730469 0 12.183594 -5.46875 12.183594 -12.210937 z m 0 0"
       id="path2" />
  </clipPath>
  <linearGradient
     id="c"
     gradientTransform="matrix(0.164687 0 0 0.165054 -25.111408 -9.834853)"
     gradientUnits="userSpaceOnUse"
     x1="403.496033"
     x2="678.908813"
     y1="793.565552"
     y2="793.565552">
    <stop
       offset="0"
       stop-color="#9a9996"
       id="stop2" />
    <stop
       offset="0.0414257"
       stop-color="#c0bfbc"
       id="stop3" />
    <stop
       offset="0.0815191"
       stop-color="#9a9996"
       id="stop4" />
    <stop
       offset="0.899024"
       stop-color="#77767b"
       id="stop5" />
    <stop
       offset="0.952865"
       stop-color="#c0bfbc"
       id="stop6" />
    <stop
       offset="1"
       stop-color="#77767b"
       id="stop7" />
  </linearGradient>
  <clipPath
     id="d">
    <path
       d="m 41 68 h 46 v 52 h -46 z m 0 0"
       id="path7" />
  </clipPath>
  <clipPath
     id="e">
    <path
       d="m 40.402344 54.339844 h 47.421875 v 68.484375 h -47.421875 z m 35.910156 42.734375 c 0 -6.742188 -5.453125 -12.210938 -12.183594 -12.210938 c -6.726562 0 -12.183594 5.46875 -12.183594 12.210938 c 0 6.742187 5.457032 12.210937 12.183594 12.210937 c 6.730469 0 12.183594 -5.46875 12.183594 -12.210937 z m 0 0"
       id="path8" />
  </clipPath>
  <clipPath
     id="f">
    <path
       d="m 41 55 h 46 v 54 h -46 z m 0 0"
       id="path9" />
  </clipPath>
  <clipPath
     id="g">
    <path
       d="m 40.402344 54.339844 h 47.421875 v 68.484375 h -47.421875 z m 35.910156 42.734375 c 0 -6.742188 -5.453125 -12.210938 -12.183594 -12.210938 c -6.726562 0 -12.183594 5.46875 -12.183594 12.210938 c 0 6.742187 5.457032 12.210937 12.183594 12.210937 c 6.730469 0 12.183594 -5.46875 12.183594 -12.210937 z m 0 0"
       id="path10" />
  </clipPath>
  <linearGradient
     id="h"
     gradientTransform="matrix(0.299808 0 0 0.300475 -270.58579 35.155126)"
     gradientUnits="userSpaceOnUse"
     x1="928.741516"
     x2="1302.490479"
     y1="216.638611"
     y2="216.638611">
    <stop
       offset="0"
       stop-color="#3d3846"
       id="stop10" />
    <stop
       offset="0.0279595"
       stop-color="#79718e"
       id="stop11" />
    <stop
       offset="0.0654033"
       stop-color="#4e475a"
       id="stop12" />
    <stop
       offset="0.938181"
       stop-color="#716881"
       id="stop13" />
    <stop
       offset="0.971878"
       stop-color="#847a96"
       id="stop14" />
    <stop
       offset="1"
       stop-color="#3d3846"
       id="stop15" />
  </linearGradient>
  <linearGradient
     id="i"
     gradientTransform="matrix(0.45451 0 0 0.455522 -1210.292114 616.172607)"
     gradientUnits="userSpaceOnUse"
     x1="2704.463135"
     x2="2868.168457"
     y1="-1148.187378"
     y2="-1311.529175">
    <stop
       offset="0"
       stop-color="#1c71d8"
       id="stop16" />
    <stop
       offset="1"
       stop-color="#62a0ea"
       id="stop17" />
  </linearGradient>
  <g
     clip-path="url(#a)"
     id="g18"
     style="filter:url(#filter31)">
    <g
       clip-path="url(#b)"
       id="g17">
      <path
         d="m 44.664062 70.726562 h 38.898438 c 1.902344 0 3.4375 1.523438 3.4375 3.414063 v 44.445313 c 0 1.890624 -1.535156 3.414062 -3.4375 3.414062 h -38.898438 c -1.902343 0 -3.4375 -1.523438 -3.4375 -3.414062 v -44.445313 c 0 -1.890625 1.535157 -3.414063 3.4375 -3.414063 z m 0 0"
         fill="url(#c)"
         id="path17" />
    </g>
  </g>
  <g
     clip-path="url(#d)"
     id="g20"
     style="filter:url(#filter30)">
    <g
       clip-path="url(#e)"
       id="g19">
      <path
         d="m 44.664062 68.726562 h 38.898438 c 1.902344 0 3.4375 1.523438 3.4375 3.414063 v 44.445313 c 0 1.890624 -1.535156 3.414062 -3.4375 3.414062 h -38.898438 c -1.902343 0 -3.4375 -1.523438 -3.4375 -3.414062 v -44.445313 c 0 -1.890625 1.535157 -3.414063 3.4375 -3.414063 z m 0 0"
         fill="#77767b"
         id="path18" />
    </g>
  </g>
  <g
     clip-path="url(#f)"
     id="g22"
     style="filter:url(#filter29)">
    <g
       clip-path="url(#g)"
       id="g21">
      <path
         d="m 41.226562 55.164062 h 45.773438 v 53.414063 h -45.773438 z m 0 0"
         fill="#434348"
         fill-opacity="0.509804"
         id="path20" />
    </g>
  </g>
  <path
     d="m 120 21.613281 v 72.773438 c 0 5.308593 -4.296875 9.613281 -9.59375 9.613281 h -92.8125 c -5.296875 0 -9.59375 -4.304688 -9.59375 -9.613281 v -72.773438 c 0 -5.308593 4.296875 -9.613281 9.59375 -9.613281 h 92.8125 c 5.296875 0 9.59375 4.304688 9.59375 9.613281 z m 0 0"
     fill="url(#h)"
     id="path22"
     style="filter:url(#filter28)" />
  <path
     d="m 120 21.613281 v 68.773438 c 0 5.308593 -4.296875 9.613281 -9.59375 9.613281 h -92.8125 c -5.296875 0 -9.59375 -4.304688 -9.59375 -9.613281 v -68.773438 c 0 -5.308593 4.296875 -9.613281 9.59375 -9.613281 h 92.8125 c 5.296875 0 9.59375 4.304688 9.59375 9.613281 z m 0 0"
     fill="#241f31"
     id="path23"
     style="filter:url(#filter27)" />
  <path
     d="m 17.378906 14 h 93.242188 c 4.074218 0 7.378906 3.3125 7.378906 7.394531 v 69.210938 c 0 4.082031 -3.304688 7.394531 -7.378906 7.394531 h -93.242188 c -4.074218 0 -7.378906 -3.3125 -7.378906 -7.394531 v -69.210938 c 0 -4.082031 3.304688 -7.394531 7.378906 -7.394531 z m 0 0"
     fill="url(#i)"
     id="path24"
     style="filter:url(#filter24)" />
</svg>
