<?xml version="1.0" encoding="UTF-8" standalone="no"?>
<svg
   height="16px"
   viewBox="0 0 16 16"
   width="16px"
   version="1.1"
   id="svg18"
   sodipodi:docname="panel-left-close-symbolic.svg"
   inkscape:version="1.4.2 (ebf0e940d0, 2025-05-08)"
   xmlns:inkscape="http://www.inkscape.org/namespaces/inkscape"
   xmlns:sodipodi="http://sodipodi.sourceforge.net/DTD/sodipodi-0.dtd"
   xmlns="http://www.w3.org/2000/svg"
   xmlns:svg="http://www.w3.org/2000/svg">
  <defs
     id="defs18" />
  <sodipodi:namedview
     id="namedview18"
     pagecolor="#ffffff"
     bordercolor="#000000"
     borderopacity="0.25"
     inkscape:showpageshadow="2"
     inkscape:pageopacity="0.0"
     inkscape:pagecheckerboard="0"
     inkscape:deskcolor="#d1d1d1"
     inkscape:zoom="65.125"
     inkscape:cx="5.6890595"
     inkscape:cy="8.0460653"
     inkscape:window-width="1143"
     inkscape:window-height="1401"
     inkscape:window-x="5175"
     inkscape:window-y="18"
     inkscape:window-maximized="1"
     inkscape:current-layer="svg18" />
  <filter
     id="a"
     height="1"
     width="1"
     x="0"
     y="0">
    <feColorMatrix
       in="SourceGraphic"
       type="matrix"
       values="0 0 0 0 1 0 0 0 0 1 0 0 0 0 1 0 0 0 1 0"
       id="feColorMatrix1" />
  </filter>
  <mask
     id="b">
    <g
       filter="url(#a)"
       id="g1">
      <path
         d="m 0 0 h 16 v 16 h -16 z"
         fill-opacity="0.3"
         id="path1" />
    </g>
  </mask>
  <clipPath
     id="c">
    <path
       d="m 0 0 h 800 v 800 h -800 z"
       id="path2" />
  </clipPath>
  <mask
     id="d">
    <g
       filter="url(#a)"
       id="g3">
      <path
         d="m 0 0 h 16 v 16 h -16 z"
         fill-opacity="0.35"
         id="path3" />
    </g>
  </mask>
  <clipPath
     id="e">
    <path
       d="m 0 0 h 800 v 800 h -800 z"
       id="path4" />
  </clipPath>
  <mask
     id="f">
    <g
       filter="url(#a)"
       id="g5">
      <path
         d="m 0 0 h 16 v 16 h -16 z"
         fill-opacity="0.35"
         id="path5" />
    </g>
  </mask>
  <clipPath
     id="g">
    <path
       d="m 0 0 h 800 v 800 h -800 z"
       id="path6" />
  </clipPath>
  <mask
     id="h">
    <g
       filter="url(#a)"
       id="g7">
      <path
         d="m 0 0 h 16 v 16 h -16 z"
         fill-opacity="0.35"
         id="path7" />
    </g>
  </mask>
  <clipPath
     id="i">
    <path
       d="m 0 0 h 800 v 800 h -800 z"
       id="path8" />
  </clipPath>
  <mask
     id="j">
    <g
       filter="url(#a)"
       id="g9">
      <path
         d="m 0 0 h 16 v 16 h -16 z"
         fill-opacity="0.35"
         id="path9" />
    </g>
  </mask>
  <clipPath
     id="k">
    <path
       d="m 0 0 h 800 v 800 h -800 z"
       id="path10" />
  </clipPath>
  <g
     fill="#2e3436"
     id="g13">
    <path
       d="m 3 0.988281 c -1.644531 0 -3 1.355469 -3 3 v 8 c 0 1.644531 1.355469 3 3 3 h 10 c 1.644531 0 3 -1.355469 3 -3 v -8 c 0 -1.644531 -1.355469 -3 -3 -3 z m 0 2 h 10 c 0.570312 0 1 0.429688 1 1 v 8 c 0 0.570313 -0.429688 1 -1 1 h -10 c -0.570312 0 -1 -0.429687 -1 -1 v -8 c 0 -0.570312 0.429688 -1 1 -1 z m 0 0"
       id="path12" />
    <path
       d="m 6 1.988281 h 1 v 12 h -1 z m 0 0"
       id="path13" />
  </g>
  <g
     clip-path="url(#c)"
     mask="url(#b)"
     transform="matrix(1 0 0 1 -400 -340.011719)"
     id="g14">
    <path
       d="m 142.5 351 h 10.449219 c -1.183594 0.492188 -1.296875 2.457031 0 3 h -10.449219 z m 0 0"
       fill="#2e3436"
       id="path14" />
  </g>
  <g
     clip-path="url(#e)"
     mask="url(#d)"
     transform="matrix(1 0 0 1 -400 -340.011719)"
     id="g15">
    <path
       d="m 104 502 c 0 0.550781 -0.449219 1 -1 1 s -1 -0.449219 -1 -1 s 0.449219 -1 1 -1 s 1 0.449219 1 1 z m 0 0"
       fill="#2e3436"
       id="path15" />
  </g>
  <g
     clip-path="url(#g)"
     mask="url(#f)"
     transform="matrix(1 0 0 1 -400 -340.011719)"
     id="g16">
    <path
       d="m 106 501 v 2 h 8 v -2 z m 0 0"
       fill="#2e3436"
       fill-rule="evenodd"
       id="path16" />
  </g>
  <g
     clip-path="url(#i)"
     mask="url(#h)"
     transform="matrix(1 0 0 1 -400 -340.011719)"
     id="g17">
    <path
       d="m 104 514 c 0 0.550781 -0.449219 1 -1 1 s -1 -0.449219 -1 -1 s 0.449219 -1 1 -1 s 1 0.449219 1 1 z m 0 0"
       fill="#2e3436"
       id="path17" />
  </g>
  <g
     clip-path="url(#k)"
     mask="url(#j)"
     transform="matrix(1 0 0 1 -400 -340.011719)"
     id="g18">
    <path
       d="m 106 513 v 2 h 8 v -2 z m 0 0"
       fill="#2e3436"
       fill-rule="evenodd"
       id="path18" />
  </g>
  <path
     style="fill:#000000;stroke-width:0.0434307;fill-opacity:0"
     d="M 2.6492753,12.898776 C 2.4219534,12.818318 2.1261897,12.504001 2.0654111,12.278286 2.032094,12.154556 2.0213495,10.840914 2.0295447,7.8931992 l 0.0117,-4.2084379 0.1309628,-0.2118072 C 2.2675462,3.3187623 2.3663603,3.2281361 2.5354707,3.1397917 L 2.767771,3.0184366 h 1.6019781 1.601978 v 4.9728201 4.9728203 l -1.5743644,-0.0019 c -1.2432185,-0.0015 -1.6109047,-0.01484 -1.7480874,-0.06339 z"
     id="path19" />
</svg>
