<?xml version="1.0" encoding="UTF-8"?>
<svg height="16px" viewBox="0 0 16 16" width="16px" xmlns="http://www.w3.org/2000/svg" xmlns:xlink="http://www.w3.org/1999/xlink">
    <filter id="a" height="100%" width="100%" x="0%" y="0%">
        <feColorMatrix color-interpolation-filters="sRGB" values="0 0 0 0 1 0 0 0 0 1 0 0 0 0 1 0 0 0 1 0"/>
    </filter>
    <mask id="b">
        <g filter="url(#a)">
            <rect fill-opacity="0.379327" height="19.2" width="19.2" x="-1.6" y="-1.6"/>
        </g>
    </mask>
    <clipPath id="c">
        <rect height="42" width="42"/>
    </clipPath>
    <pattern id="d" height="42" patternTransform="matrix(1 0 0 1 633 -51)" patternUnits="userSpaceOnUse" viewBox="0 0 42 42" width="42">
        <g clip-path="url(#c)">
            <path d="m 10.5 0 h -10.5 v 21 h 21 v -10.5 h -10.5 z m 21 21 h -10.5 v -21 h 21 v 10.5 h -10.5 z m -21 21 h 10.5 v -21 h -21 v 10.5 h 10.5 z m 21 -21 h 10.5 v 21 h -21 v -10.5 h 10.5 z m 0 0"/>
        </g>
    </pattern>
    <clipPath id="e">
        <rect height="152" width="192"/>
    </clipPath>
    <g mask="url(#b)">
        <g clip-path="url(#e)" transform="matrix(1 0 0 1 -168 -16)">
            <path d="m 29.210938 35.339844 h 85.578124 c 1.171876 0 2.121094 0.945312 2.121094 2.117187 v 59.335938 c 0 1.171875 -0.949218 2.117187 -2.121094 2.117187 h -85.578124 c -1.171876 0 -2.121094 -0.945312 -2.121094 -2.117187 v -59.335938 c 0 -1.171875 0.949218 -2.117187 2.121094 -2.117187 z m 0 0" fill="url(#d)"/>
        </g>
    </g>
    <path d="m 12 0.5 c 1.660156 0 3 1.339844 3 3 v 6 c 0 1.660156 -1.339844 3 -3 3 h -8 c -1.660156 0 -3 -1.339844 -3 -3 v -6 c 0 -1.660156 1.339844 -3 3 -3 z m 0 2 h -8 c -0.554688 0 -1 0.445312 -1 1 v 6 c 0 0.554688 0.445312 1 1 1 h 8 c 0.554688 0 1 -0.445312 1 -1 v -6 c 0 -0.554688 -0.445312 -1 -1 -1 z m -4 11 c -5 0 -5 1 -5 1 c 0 1 1 1 1 1 h 8 c 1 0 1 -1 1 -1 s 0 -1 -5 -1 z m 0 0" fill="#2e3436"/>
</svg>
