<?xml version="1.0" encoding="UTF-8"?>
<svg height="128px" viewBox="0 0 128 128" width="128px" xmlns="http://www.w3.org/2000/svg" xmlns:xlink="http://www.w3.org/1999/xlink">
    <filter id="a" height="100%" width="100%" x="0%" y="0%">
        <feColorMatrix color-interpolation-filters="sRGB" values="0 0 0 0 1 0 0 0 0 1 0 0 0 0 1 0 0 0 1 0"/>
    </filter>
    <clipPath id="b">
        <path d="m 40 61 h 48 v 56 h -48 z m 0 0"/>
    </clipPath>
    <clipPath id="c">
        <path d="m 39.503906 46.390625 h 48.992188 v 70.613281 h -48.992188 z m 37.207032 45.335937 c 0 -7.175781 -5.691407 -12.996093 -12.710938 -12.996093 s -12.710938 5.820312 -12.710938 12.996093 c 0 7.175782 5.691407 12.996094 12.710938 12.996094 s 12.710938 -5.820312 12.710938 -12.996094 z m 0 0"/>
    </clipPath>
    <clipPath id="d">
        <path d="m 40 47 h 48 v 55 h -48 z m 0 0"/>
    </clipPath>
    <clipPath id="e">
        <path d="m 39.503906 46.390625 h 48.992188 v 70.613281 h -48.992188 z m 37.207032 45.335937 c 0 -7.175781 -5.691407 -12.996093 -12.710938 -12.996093 s -12.710938 5.820312 -12.710938 12.996093 c 0 7.175782 5.691407 12.996094 12.710938 12.996094 s 12.710938 -5.820312 12.710938 -12.996094 z m 0 0"/>
    </clipPath>
    <linearGradient id="f" gradientTransform="matrix(0.232143 0 0 0.237306 -8.567014 203.860016)" gradientUnits="userSpaceOnUse" x1="88.595886" x2="536.595886" y1="-449.394012" y2="-449.394012">
        <stop offset="0" stop-color="#77767b"/>
        <stop offset="0.0357143" stop-color="#c0bfbc"/>
        <stop offset="0.0713653" stop-color="#9a9996"/>
        <stop offset="0.928571" stop-color="#9a9996"/>
        <stop offset="0.964286" stop-color="#c0bfbc"/>
        <stop offset="1" stop-color="#77767b"/>
    </linearGradient>
    <mask id="g">
        <g filter="url(#a)">
            <rect fill-opacity="0.379327" height="153.6" width="153.6" x="-12.8" y="-12.8"/>
        </g>
    </mask>
    <clipPath id="h">
        <rect height="42" width="42"/>
    </clipPath>
    <pattern id="i" height="42" patternTransform="matrix(1 0 0 1 633 -51)" patternUnits="userSpaceOnUse" viewBox="0 0 42 42" width="42">
        <g clip-path="url(#h)">
            <path d="m 10.5 0 h -10.5 v 21 h 21 v -10.5 h -10.5 z m 21 21 h -10.5 v -21 h 21 v 10.5 h -10.5 z m -21 21 h 10.5 v -21 h -21 v 10.5 h 10.5 z m 21 -21 h 10.5 v 21 h -21 v -10.5 h 10.5 z m 0 0"/>
        </g>
    </pattern>
    <clipPath id="j">
        <rect height="152" width="192"/>
    </clipPath>
    <g clip-path="url(#b)">
        <g clip-path="url(#c)">
            <path d="m 44.6875 61.554688 h 38.625 c 2.394531 0 4.324219 1.929687 4.324219 4.328124 v 45.917969 c 0 2.394531 -1.929688 4.324219 -4.324219 4.324219 h -38.625 c -2.394531 0 -4.324219 -1.929688 -4.324219 -4.324219 v -45.917969 c 0 -2.398437 1.929688 -4.328124 4.324219 -4.328124 z m 0 0" fill="#9a9996"/>
        </g>
    </g>
    <g clip-path="url(#d)">
        <g clip-path="url(#e)">
            <path d="m 40.363281 47.269531 h 47.273438 v 54.566407 h -47.273438 z m 0 0" fill="#818084"/>
        </g>
    </g>
    <path d="m 21.453125 25.074219 h 85.09375 c 5.21875 0 9.453125 4.234375 9.453125 9.453125 v 53.234375 c 0 5.222656 -4.234375 9.453125 -9.453125 9.453125 h -85.09375 c -5.21875 0 -9.453125 -4.230469 -9.453125 -9.453125 v -53.234375 c 0 -5.21875 4.234375 -9.453125 9.453125 -9.453125 z m 0 0" fill="url(#f)"/>
    <path d="m 21.453125 12.125 h 85.09375 c 5.21875 0 9.453125 4.234375 9.453125 9.453125 v 61.457031 c 0 5.21875 -4.234375 9.453125 -9.453125 9.453125 h -85.09375 c -5.21875 0 -9.453125 -4.234375 -9.453125 -9.453125 v -61.457031 c 0 -5.21875 4.234375 -9.453125 9.453125 -9.453125 z m 0 0" fill="#deddda"/>
    <path d="m 21.453125 16.851562 h 85.09375 c 2.609375 0 4.726563 2.117188 4.726563 4.726563 v 59.09375 c 0 2.609375 -2.117188 4.726563 -4.726563 4.726563 h -85.09375 c -2.609375 0 -4.726563 -2.117188 -4.726563 -4.726563 v -59.09375 c 0 -2.609375 2.117188 -4.726563 4.726563 -4.726563 z m 0 0" fill="#613583"/>
    <g mask="url(#g)">
        <g clip-path="url(#j)" transform="matrix(1 0 0 1 -8 -16)">
            <path d="m 29.210938 35.339844 h 85.578124 c 1.171876 0 2.121094 0.945312 2.121094 2.117187 v 59.335938 c 0 1.171875 -0.949218 2.117187 -2.121094 2.117187 h -85.578124 c -1.171876 0 -2.121094 -0.945312 -2.121094 -2.117187 v -59.335938 c 0 -1.171875 0.949218 -2.117187 2.121094 -2.117187 z m 0 0" fill="url(#i)"/>
        </g>
    </g>
</svg>
